<svg width="13" height="8" viewBox="0 0 13 8" fill="none" xmlns="http://www.w3.org/2000/svg">
<path d="M1 3.5C0.723858 3.5 0.5 3.72386 0.5 4C0.5 4.27614 0.723858 4.5 1 4.5V3.5ZM12.6673 4.35355C12.8625 4.15829 12.8625 3.84171 12.6673 3.64645L9.48528 0.464466C9.29002 0.269204 8.97344 0.269204 8.77817 0.464466C8.58291 0.659728 8.58291 0.976311 8.77817 1.17157L11.6066 4L8.77817 6.82843C8.58291 7.02369 8.58291 7.34027 8.77817 7.53553C8.97344 7.7308 9.29002 7.7308 9.48528 7.53553L12.6673 4.35355ZM1 4.5L12.3137 4.5V3.5L1 3.5V4.5Z" fill="#0ABAB5"/>
</svg>
