<svg width="102" height="36" viewBox="0 0 102 36" fill="none" xmlns="http://www.w3.org/2000/svg">
<path d="M11.4426 -4.57764e-05C13.868 -4.57764e-05 14.6301 1.73959 15.2695 3.47649C15.5381 4.21406 21.8409 21.4741 22.0304 21.9921C22.0808 22.1367 22.0467 22.3739 21.8245 22.4598C21.6009 22.5443 18.3261 23.8177 18.1448 23.8858C17.9635 23.9554 17.7603 23.8545 17.6949 23.6731C17.6267 23.4945 16.2675 19.7317 16.1148 19.3118H6.77312C6.62587 19.7317 5.25026 23.5027 5.18891 23.6731C5.12619 23.8463 4.93123 23.9635 4.73764 23.8858C4.54404 23.8095 1.25701 22.5361 1.06069 22.4598C0.872543 22.3861 0.786652 22.1721 0.852092 21.9921C1.08386 21.3459 7.29119 4.36267 7.60749 3.47649C8.22372 1.76549 9.01174 -4.57764e-05 11.4426 -4.57764e-05ZM0.353107 30.8839C0.156785 30.8839 0 31.0475 0 31.2466V35.2807C0 35.4797 0.156785 35.6406 0.353107 35.6406H22.5225C22.7229 35.6406 22.8797 35.4797 22.8797 35.2807V31.2466C22.8797 31.0475 22.7229 30.8839 22.5225 30.8839H0.353107ZM11.4208 5.63604L8.26326 15.1181H14.6301L11.4617 5.63604H11.4208ZM58.8012 21.1837C58.3363 21.3405 58.0296 21.3786 57.6642 21.3786C56.9089 21.3786 56.4904 21.0801 56.4904 20.3057C56.4904 19.4986 57.0221 19.2286 58.0664 19.2286C58.3213 19.2286 58.5722 19.2654 58.6894 19.3063V19.8844C58.6894 20.5075 58.7235 20.9165 58.8012 21.1837ZM61.4857 22.108C60.9281 21.2614 60.7822 20.7624 60.7822 19.6949V17.5272C60.7822 16.3601 60.6458 15.9389 60.3377 15.5135C59.9083 14.9109 59.1925 14.6491 57.8769 14.6491C56.9457 14.6491 56.0418 14.75 55.1665 14.9736L55.4828 16.5142C56.0745 16.431 56.6949 16.3601 57.1325 16.3601C58.5299 16.3601 58.6894 16.5619 58.6894 17.6103V18.0016C58.3786 17.9185 58.0296 17.8585 57.6247 17.8585C55.521 17.8585 54.4099 18.8878 54.4099 20.592C54.4099 22.1898 55.5974 23.061 57.0439 23.061C57.5838 23.061 58.1482 22.9615 58.5954 22.7788C58.8653 22.6615 58.9826 22.592 59.3316 22.3657C59.5415 22.6711 59.9628 22.9833 60.1346 23.0419L61.4857 22.108ZM82.2945 21.1837C81.8268 21.3405 81.5255 21.3786 81.1574 21.3786C80.3994 21.3786 79.9754 21.0801 79.9754 20.3057C79.9754 19.4986 80.5139 19.2286 81.561 19.2286C81.8159 19.2286 82.0682 19.2654 82.1827 19.3063V19.8844C82.1827 20.5075 82.2154 20.9165 82.2945 21.1837ZM84.9816 22.108C84.4199 21.2614 84.2768 20.7624 84.2768 19.6949V17.5272C84.2768 16.3601 84.1377 15.9389 83.8269 15.5135C83.4029 14.9109 82.6858 14.6491 81.366 14.6491C80.4362 14.6491 79.5269 14.75 78.6516 14.9736L78.9638 16.5142C79.5569 16.431 80.1786 16.3601 80.6285 16.3601C82.0177 16.3601 82.1827 16.5619 82.1827 17.6103V18.0016C81.8718 17.9185 81.5255 17.8585 81.1124 17.8585C79.0061 17.8585 77.8908 18.8878 77.8908 20.592C77.8908 22.1898 79.0811 23.061 80.5344 23.061C81.0811 23.061 81.6401 22.9615 82.0832 22.7788C82.3572 22.6615 82.4703 22.592 82.8194 22.3657C83.032 22.6711 83.4533 22.9833 83.6265 23.0419L84.9816 22.108ZM101.361 22.8797C101.361 22.8797 100.208 20.4216 99.9253 19.8626C99.6076 19.2327 99.3132 18.7978 98.6642 18.641V18.6056C99.0991 18.5224 99.4454 18.2593 99.8244 17.4549C100.183 16.671 100.289 16.5019 100.501 16.3152C100.708 16.1297 100.991 16.1965 100.991 16.1965L101.098 14.7473C100.796 14.7064 100.462 14.705 100.118 14.7241C99.5449 14.7582 99.2491 14.9232 98.9669 15.2067C98.746 15.4235 98.596 15.748 98.4106 16.1202C98.2143 16.5265 98.0589 16.8537 97.8544 17.2668C97.6512 17.6908 97.5558 17.8816 97.0091 17.8816H96.6533V11.4616H94.5469V22.8797H96.6533V19.5967L96.9409 19.5913C97.5449 19.5913 97.6512 19.7426 97.9703 20.3793C98.3438 21.1387 99.0596 22.8797 99.0596 22.8797H101.361ZM42.0225 22.8797H44.4534L40.7764 11.6525C40.3892 11.523 39.9107 11.4425 39.3994 11.4425C38.8418 11.4425 38.6428 11.5162 38.2065 11.6525L34.3155 22.8797H36.6482C36.6482 22.8797 36.9631 21.8953 37.3339 20.6751H41.364C41.7239 21.894 42.0225 22.8797 42.0225 22.8797ZM37.9256 18.7924C37.9256 18.7924 38.5991 16.5387 38.7041 16.1884C38.9713 15.2804 39.3776 13.8379 39.3776 13.8379H39.4444C39.4444 13.8379 39.8207 15.3322 40.0661 16.172C40.1588 16.506 40.8023 18.7924 40.8023 18.7924H37.9256ZM65.074 17.5081C64.331 17.5081 63.727 18.1148 63.727 18.8578C63.727 19.6063 64.331 20.2089 65.074 20.2089C65.8184 20.2089 66.4196 19.6063 66.4196 18.8578C66.4196 18.1148 65.8184 17.5081 65.074 17.5081ZM47.3396 11.4616H45.2277V22.8783H47.3396V11.4616ZM89.2966 16.4638C90.4637 16.4883 90.6082 16.7296 90.6082 17.7085V22.8797H92.7009V17.5272C92.7009 16.3601 92.5646 15.9389 92.2537 15.5135C91.8243 14.9109 90.9804 14.6491 89.5529 14.6491C88.1405 14.6491 87.2407 14.7991 86.0832 15.144V22.8797H88.1978V16.5619C88.7527 16.4815 88.8508 16.4638 89.2966 16.4638ZM52.5626 11.2585C51.2428 11.2585 50.5243 11.5203 50.1017 12.1215C49.7909 12.5482 49.6532 12.979 49.6532 14.1488V15.144H48.6048V16.8509H49.6532V22.8797H51.7473L51.7418 16.8509H53.8291V15.144H51.7418L51.7473 14.2292C51.7473 13.1822 51.9068 12.979 53.3056 12.979C53.4569 12.979 53.6273 12.9872 53.8087 13.0009L54.1386 11.3607C53.6219 11.2926 53.0929 11.2585 52.5626 11.2585ZM69.3645 11.3648C70.083 11.3226 71.689 11.2626 72.6965 11.2626C72.8805 11.2626 73.0714 11.2639 73.2623 11.2735C75.2432 11.2735 76.3789 12.7159 76.3789 14.4092C76.3789 15.5612 75.8513 16.3261 74.6147 16.7814C76.0694 17.1032 76.8315 18.2388 76.8315 19.6281C76.8315 20.6479 76.5439 21.4577 76.0162 22.0099C75.3318 22.6834 74.2957 23.061 72.916 23.061C71.689 23.061 70.1484 23.0228 69.3645 22.9765V11.3648ZM72.6965 13.2353C72.3475 13.2353 71.9153 13.2422 71.4872 13.2572V15.9989H72.6979C73.1777 15.9989 73.5636 15.8652 73.8267 15.6076C74.0776 15.3649 74.2085 15.0213 74.2085 14.6137C74.2085 13.7371 73.734 13.2408 72.8519 13.2353H72.6965ZM72.7401 21.0923H72.8315C73.9317 21.0923 74.6052 20.5075 74.6134 19.3295C74.6024 18.9069 74.4402 18.517 74.1498 18.2347C73.8322 17.9157 73.3823 17.7494 72.8546 17.7494H71.4872V21.0801C71.873 21.0882 72.2984 21.0896 72.7401 21.0923Z" fill="#EE2A23"/>
</svg>
