<svg width="120" height="32" viewBox="0 0 120 32" fill="none" xmlns="http://www.w3.org/2000/svg">
<path fill-rule="evenodd" clip-rule="evenodd" d="M0.243164 0.545776H31.6385V31.9411H0.243164V0.545776Z" fill="black"/>
<path fill-rule="evenodd" clip-rule="evenodd" d="M1.15137 1.45312H30.7306V31.033H1.15137V1.45312Z" fill="#FFF200"/>
<path fill-rule="evenodd" clip-rule="evenodd" d="M2.72038 25.0566L6.57895 28.9899L15.6194 19.8176L24.9624 29.1789L28.8774 25.3019L19.6282 16.0541L21.4063 14.3332V10.6642L22.5223 9.71881V12.5932L23.9598 13.7657L28.2527 9.47276L29.6332 10.5317C30.4468 7.52479 25.7372 0.697354 21.8413 4.4798L17.3017 8.98067L18.2287 10.0967L15.9212 12.3471L13.6898 10.1531L14.8623 9.0935L9.88833 4.29017C6.14395 1.20712 2.30441 5.8983 2.17188 10.4746L3.53328 9.34022L7.71266 13.8418L9.20661 12.5939V9.83232L10.133 10.5317V14.1442L11.9485 15.9597L2.72038 25.0566Z" fill="black"/>
<path fill-rule="evenodd" clip-rule="evenodd" d="M39.6575 4.3092V7.0327H40.8299C42.4374 6.73024 42.0024 4.42271 40.8299 4.3092H39.6575ZM36.3291 1.60474V13.9363H39.6575V9.9268L42.4945 13.9363H46.4285L42.9302 9.00039C46.9777 7.03338 45.4647 1.66183 41.2092 1.60542L36.3291 1.60474ZM51.7239 7.77016C52.8209 7.77016 53.7093 8.60209 53.7093 9.62366C53.7093 10.6445 52.8202 11.4772 51.7239 11.4772C50.6459 11.4772 49.7569 10.6445 49.7569 9.62366C49.7569 8.60209 50.6459 7.77016 51.7239 7.77016ZM51.0238 5.04666C51.9319 5.04666 52.7829 5.34912 53.4823 5.84053V5.36815H56.7352L56.7543 13.9356H53.4632L53.4823 13.4061C52.7829 13.8975 51.9319 14.1816 51.0238 14.1816C48.6028 14.1816 46.6174 12.1392 46.6174 9.62366C46.6174 7.10815 48.6035 5.04666 51.0238 5.04666ZM58.4759 5.36815H61.9369V13.9356H58.4759V5.36815ZM60.2152 0.469665C61.2184 0.469665 62.0313 1.3016 62.0313 2.30413C62.0313 3.30667 61.2184 4.1386 60.2152 4.1386C59.1943 4.1386 58.3807 3.30599 58.3807 2.30413C58.3814 1.30228 59.1943 0.469665 60.2152 0.469665ZM86.4857 5.36815H89.9467V13.9356H86.4857V5.36815ZM88.2067 0.469665C89.2282 0.469665 90.0411 1.3016 90.0411 2.30413C90.0411 3.30667 89.2282 4.1386 88.2067 4.1386C87.2041 4.1386 86.3912 3.30599 86.3912 2.30413C86.3912 1.30228 87.2041 0.469665 88.2067 0.469665ZM62.5798 5.36815V8.09165H63.7713V13.9356H67.1194V8.09165H70.2589V13.9356H73.7199V8.05427H75.8758V5.40621H73.6247V3.4963C73.5683 2.79691 75.2138 2.5128 75.7813 3.08033V0.280713C72.6038 -0.721822 70.0319 1.07526 70.0503 3.85517V5.36815H67.0997V3.4963C67.0617 2.79691 68.4999 2.5128 69.3311 3.08033V0.280713C66.5696 -0.53219 63.6198 0.810187 63.6388 3.83614V5.34912L62.5798 5.36815ZM80.8117 14.1816C83.7812 14.1626 84.8776 12.9337 85.5212 11.1366H82.5143C81.1522 12.8766 79.1662 11.6097 79.2613 10.1912H85.6164C85.6164 6.71121 83.7622 5.06569 80.8124 5.06569C77.8625 5.06569 76.009 7.14621 76.009 9.68075C76.009 12.2153 78.1643 14.2007 80.8117 14.1816ZM79.6957 8.16777C79.7337 7.12718 82.0032 7.12718 82.1541 8.16777H79.6957ZM104.377 14.1816C107.365 14.1626 108.463 12.9337 109.105 11.1366H106.079C104.718 12.8766 102.732 11.6097 102.827 10.1912H109.182C109.182 6.71121 107.347 5.06569 104.378 5.06569C101.427 5.06569 99.5744 7.14621 99.5744 9.68075C99.5744 12.2153 101.729 14.2007 104.377 14.1816ZM103.261 8.16777C103.299 7.12718 105.569 7.12718 105.719 8.16777H103.261ZM98.6657 5.53875L97.6441 7.61927C96.3581 7.22165 95.1095 7.29778 95.1476 7.65665C95.1857 7.88367 94.9777 8.2806 96.9821 8.56471C99.97 9.03709 99.7246 14.5976 94.7126 14.1816C93.3322 14.0871 92.2161 13.7276 91.2897 13.1791L92.4058 10.947C93.9758 11.7225 95.4881 12.1766 95.6016 11.401C95.7342 10.4366 93.9561 10.7771 92.8781 9.9635C90.9492 8.77201 92.0455 5.08404 95.2047 5.04598C96.3201 4.97122 97.4742 5.16017 98.6657 5.53875ZM110.505 5.36815V13.9356H113.74V8.69657C113.834 7.39157 116.406 7.16456 116.425 8.69657V13.9356H119.696V8.56471C119.621 5.55778 116.463 4.10122 113.606 6.01113V5.36815H110.505ZM38.239 19.1746L36.083 31.884H42.192C46.334 31.884 48.0359 26.7402 45.0854 24.9811C47.6009 22.6546 46.315 19.1562 43.6105 19.1182L38.239 19.1746ZM40.7164 26.7585L40.2814 28.8581H41.6999C43.3074 28.9335 43.1184 26.7585 42.192 26.7585H40.7164ZM41.4348 22.2005L41.076 23.9032L41.511 23.9215C42.816 23.9969 43.5725 22.2005 42.0024 22.2005H41.4348ZM46.4659 31.903H50.1729L51.2889 29.671H55.4873L56.1113 31.9411H59.5342L56.5653 19.25H53.0663L46.4659 31.903ZM52.4994 27.0046H54.807L54.0695 23.6564L52.4994 27.0046ZM60.7073 31.9411H64.1309L65.0002 23.9786L69.8987 31.903H73.5676L75.0996 19.1739H71.6767L70.7123 27.1364L65.8131 19.1358H62.2767L60.7073 31.9411ZM77.5587 19.1365L75.1567 31.903H78.7692L79.7337 27.1364L82.9677 31.903H87.7146L83.0812 25.2075L89.0012 19.1175H84.4052L80.3577 23.6184L81.0006 19.1175L77.5587 19.1365Z" fill="black"/>
</svg>
