<svg width="130" height="21" viewBox="0 0 130 21" fill="none" xmlns="http://www.w3.org/2000/svg">
<path d="M18.6554 4.02393C19.1267 4.64143 19.5257 5.31229 19.8442 6.02305L10.8071 12.7745L7.03027 10.375V7.48844L10.8071 9.88785L18.6554 4.02393Z" fill="#21A038"/>
<path d="M3.17578 10.1713C3.17578 10.0418 3.1789 9.91311 3.18513 9.78518L0.896255 9.67151C0.888464 9.83731 0.883792 10.0047 0.883792 10.1736C0.882818 11.4937 1.13901 12.8008 1.63768 14.0202C2.13634 15.2396 2.86766 16.3473 3.78968 17.2795L5.41324 15.6349C4.7035 14.9186 4.14046 14.067 3.75648 13.1294C3.3725 12.1918 3.17516 11.1865 3.17578 10.1713Z" fill="url(#paint0_linear_559_854)"/>
<path d="M10.8055 2.43943C10.9332 2.43943 11.0602 2.44417 11.1864 2.45048L11.3009 0.130014C11.1369 0.122119 10.9717 0.118172 10.8055 0.118172C9.50239 0.116561 8.21189 0.375826 7.00797 0.881078C5.80406 1.38633 4.71048 2.12762 3.79004 3.06239L5.4136 4.70779C6.12051 3.98827 6.96079 3.41744 7.88612 3.02816C8.81146 2.63887 9.80356 2.43879 10.8055 2.43943Z" fill="url(#paint1_linear_559_854)"/>
<path d="M10.8048 17.9034C10.6771 17.9034 10.5501 17.9034 10.4231 17.8931L10.3086 20.2128C10.4732 20.2212 10.6387 20.2255 10.8048 20.2255C12.1074 20.2268 13.3973 19.9674 14.6005 19.462C15.8038 18.9566 16.8967 18.2152 17.8164 17.2804L16.196 15.6358C15.4889 16.355 14.6487 16.9255 13.7236 17.3146C12.7984 17.7038 11.8065 17.9039 10.8048 17.9034Z" fill="url(#paint2_linear_559_854)"/>
<path d="M15.1053 3.78855L17.0343 2.34763C15.2712 0.900762 13.0704 0.113141 10.8018 0.117172V2.43922C12.338 2.43729 13.8386 2.90779 15.1053 3.78855Z" fill="url(#paint3_linear_559_854)"/>
<path d="M20.7254 10.1713C20.7266 9.56721 20.6745 8.9642 20.5695 8.36954L18.4342 9.96441C18.4342 10.0331 18.4342 10.1018 18.4342 10.1713C18.4347 11.2516 18.2113 12.32 17.7783 13.3072C17.3454 14.2944 16.7125 15.1783 15.9209 15.9018L17.4611 17.627C18.4903 16.6853 19.3127 15.5351 19.875 14.2507C20.4374 12.9663 20.7271 11.5764 20.7254 10.1713Z" fill="#21A038"/>
<path d="M10.8049 17.9033C9.73886 17.9037 8.6846 17.6771 7.71039 17.2384C6.73623 16.7996 5.86383 16.1584 5.1497 15.3562L3.44824 16.9164C4.37724 17.9596 5.51221 18.7932 6.77956 19.3632C8.04691 19.9333 9.41832 20.227 10.8049 20.2253V17.9033Z" fill="url(#paint4_linear_559_854)"/>
<path d="M5.68904 4.44076L4.14961 2.71561C3.12014 3.65704 2.29742 4.80726 1.7348 6.09167C1.17219 7.37606 0.882255 8.76597 0.883795 10.1713H3.17579C3.17532 9.091 3.3988 8.0226 3.83175 7.03542C4.2647 6.04827 4.89746 5.16428 5.68904 4.44076Z" fill="url(#paint5_linear_559_854)"/>
<mask id="mask0_559_854" style="mask-type:luminance" maskUnits="userSpaceOnUse" x="26" y="3" width="104" height="14">
<path d="M129.603 3.61496H26.0684V16.9065H129.603V3.61496Z" fill="white"/>
</mask>
<g mask="url(#mask0_559_854)">
<path d="M58.1363 5.86687L60.975 3.77139H51.4746V16.3634H60.975V14.2679H54.1855V11.0425H59.9772V8.947H54.1855V5.86687H58.1363Z" fill="#21A038"/>
<path d="M45.0828 8.67681H41.7844V5.86604H47.0485L49.8854 3.76419H39.0752V16.3562H44.7339C47.9064 16.3562 49.7272 14.9155 49.7272 12.4028C49.7272 9.99904 48.078 8.67681 45.0828 8.67681ZM44.6119 14.2601H41.7844V10.771H44.6119C46.3278 10.771 47.1323 11.3557 47.1323 12.5156C47.1323 13.6754 46.2763 14.2601 44.6119 14.2601Z" fill="#21A038"/>
<path d="M67.9585 3.76956H62.7871V16.3615H65.4976V12.7944H67.9585C71.2579 12.7944 73.2989 11.0549 73.2989 8.27528C73.2989 5.49578 71.2579 3.76956 67.9585 3.76956ZM67.9013 10.6974H65.4976V5.86664H67.9013C69.6368 5.86664 70.5946 6.72498 70.5946 8.28297C70.5946 9.84095 69.6368 10.6974 67.9013 10.6974Z" fill="#21A038"/>
<path d="M35.007 13.3901C34.3068 13.77 33.5223 13.9668 32.7261 13.9621C30.3431 13.9621 28.6143 12.2574 28.6143 9.91008C28.6143 7.56268 30.3431 5.85431 32.7261 5.85431C33.5855 5.83969 34.4271 6.10079 35.1278 6.59953L37.0239 5.2004L36.8956 5.10911C35.7896 4.13476 34.3118 3.61871 32.6202 3.61871C30.7855 3.61871 29.1218 4.23722 27.934 5.36248C27.3333 5.94185 26.8584 6.63906 26.5385 7.41058C26.2187 8.18211 26.0609 9.01136 26.0751 9.8467C26.0624 10.6905 26.2194 11.5283 26.5369 12.3099C26.8544 13.0916 27.3257 13.8011 27.9228 14.3962C29.1162 15.5661 30.7762 16.2107 32.5979 16.2107C34.5014 16.2107 36.1651 15.5456 37.2916 14.3347L35.5944 13.0679L35.007 13.3901Z" fill="#21A038"/>
<path d="M84.0471 8.67681H80.7502V5.86604H87.8353V3.76419H78.0391V16.3562H83.6906C86.8627 16.3562 88.6837 14.9155 88.6837 12.4028C88.691 9.99904 87.0422 8.67681 84.0471 8.67681ZM83.5762 14.2601H80.7502V10.771H83.5762C85.292 10.771 86.0961 11.3557 86.0961 12.5156C86.0961 13.6754 85.2478 14.2601 83.5762 14.2601Z" fill="#21A038"/>
<path d="M119.501 16.3382H116.753V3.74619H119.501V9.03491H120.997L125.036 3.74619H128.15L123.359 9.73636L128.922 16.3382H125.276L121.187 11.3859H119.501V16.3382Z" fill="#21A038"/>
<path d="M98.6674 13.9452H92.8542L91.8688 16.3905H88.9443L94.3967 3.79846H97.3205L102.684 16.3905H99.6529L98.6674 13.9452ZM97.7569 11.6637L95.778 6.77319L93.788 11.6637H97.7569Z" fill="#21A038"/>
<path d="M106.384 3.79846V9.05666H112.071V3.79846H114.904V16.3905H112.071V11.4288H106.384V16.3905H103.551V3.79846H106.384Z" fill="#21A038"/>
</g>
<defs>
<linearGradient id="paint0_linear_559_854" x1="4.25323" y1="16.9898" x2="1.6889" y2="9.67532" gradientUnits="userSpaceOnUse">
<stop offset="0.14" stop-color="#F1E813"/>
<stop offset="0.3" stop-color="#E6E418"/>
<stop offset="0.58" stop-color="#C9DA26"/>
<stop offset="0.89" stop-color="#A2CC39"/>
</linearGradient>
<linearGradient id="paint1_linear_559_854" x1="4.44445" y1="3.47295" x2="10.9159" y2="1.03951" gradientUnits="userSpaceOnUse">
<stop offset="0.06" stop-color="#0FA7DF"/>
<stop offset="0.54" stop-color="#0098F8"/>
<stop offset="0.92" stop-color="#0290EA"/>
</linearGradient>
<linearGradient id="paint2_linear_559_854" x1="10.1575" y1="18.824" x2="17.4604" y2="17.1961" gradientUnits="userSpaceOnUse">
<stop offset="0.12" stop-color="#A2CC39"/>
<stop offset="0.28" stop-color="#86C239"/>
<stop offset="0.87" stop-color="#219F38"/>
</linearGradient>
<linearGradient id="paint3_linear_559_854" x1="10.325" y1="0.894873" x2="16.5749" y2="2.79796" gradientUnits="userSpaceOnUse">
<stop offset="0.06" stop-color="#0290EA"/>
<stop offset="0.79" stop-color="#0C89CA"/>
</linearGradient>
<linearGradient id="paint4_linear_559_854" x1="4.02319" y1="16.6337" x2="10.8324" y2="19.1448" gradientUnits="userSpaceOnUse">
<stop offset="0.13" stop-color="#F1E813"/>
<stop offset="0.3" stop-color="#EAE616"/>
<stop offset="0.53" stop-color="#D8DF1F"/>
<stop offset="0.8" stop-color="#BAD52D"/>
<stop offset="0.98" stop-color="#A2CC39"/>
</linearGradient>
<linearGradient id="paint5_linear_559_854" x1="1.73764" y1="10.4523" x2="4.52611" y2="3.29484" gradientUnits="userSpaceOnUse">
<stop offset="0.07" stop-color="#A2CC39"/>
<stop offset="0.26" stop-color="#81C45E"/>
<stop offset="0.92" stop-color="#0FA7DF"/>
</linearGradient>
</defs>
</svg>
