<svg width="115" height="27" viewBox="0 0 115 27" fill="none" xmlns="http://www.w3.org/2000/svg">
<path d="M64.4677 0L50.252 1.85712V6.06399L64.4677 4.79536V0Z" fill="#E4003A"/>
<path d="M9.34141 8.44784C7.02043 8.44784 5.13403 9.87972 4.66634 10.4725V8.75427H0.547852V26.3302H4.64053V20.0787C5.12099 20.6843 6.99436 22.0904 9.32838 22.0904C13.2015 22.0904 15.3346 19.9885 15.3346 15.2591C15.3346 10.5296 13.2044 8.44784 9.34141 8.44784ZM7.87525 18.6857C5.4367 18.6857 4.66921 17.7993 4.66921 15.2492C4.66921 12.699 5.43096 11.8127 7.87525 11.8127C10.3195 11.8127 11.067 12.6861 11.067 15.2492C11.067 17.8122 10.331 18.6799 7.87525 18.6799V18.6857Z" fill="#00274F"/>
<path d="M21.0323 15.3208C21.0323 17.8738 21.794 18.7573 24.2383 18.7573C26.6826 18.7573 27.4316 17.8696 27.4316 15.3208C27.4316 12.7721 26.6941 11.8843 24.2383 11.8843C21.7823 11.8843 21.0323 12.7549 21.0323 15.3208ZM16.7373 15.2836C16.7373 10.6056 19.3367 8.46506 24.2383 8.46506C29.1399 8.46506 31.7508 10.6057 31.7508 15.2836C31.7508 19.9615 29.1686 22.1764 24.2383 22.1764C19.308 22.1764 16.7373 19.9613 16.7373 15.2836Z" fill="#00274F"/>
<path d="M43.7018 16.903C43.3803 18.2533 42.5198 18.7573 40.6547 18.7573C38.2162 18.7573 37.45 17.8695 37.45 15.3208C37.45 12.772 38.2162 11.8843 40.6547 11.8843C42.5198 11.8843 43.3803 12.3868 43.7031 13.7457L47.998 13.4206C47.3567 10.0415 44.842 8.47079 40.6547 8.47079C35.7531 8.47079 33.1553 10.6114 33.1553 15.2893C33.1553 19.9672 35.7372 22.1821 40.6547 22.1821C44.8392 22.1821 47.3281 20.5785 47.985 17.2323L43.7018 16.903Z" fill="#00274F"/>
<path d="M61.7782 9.64058L50.2536 1.86139V6.05808L53.847 8.49224L54.554 8.9046C53.2631 8.92035 52.6447 9.18238 52.0237 9.55755C50.2492 10.6271 49.3281 12.5086 49.3281 15.2851C49.3281 19.963 51.9103 22.1779 56.8291 22.1779C61.7482 22.1779 64.3432 19.9628 64.3432 15.2851C64.3432 12.5775 63.4652 10.7259 61.7782 9.64058ZM56.8291 18.7571C54.3906 18.7571 53.6231 17.8694 53.6231 15.3206C53.6231 12.7719 54.3849 11.8841 56.8291 11.8841C59.2737 11.8841 60.0224 12.7547 60.0224 15.3206C60.0224 17.8866 59.2865 18.7571 56.8291 18.7571Z" fill="#00274F"/>
<path d="M65.7588 15.2593C65.7588 19.9845 67.8892 22.0906 71.7652 22.0906C74.0977 22.0906 75.9711 20.6845 76.4515 20.0789V21.6768H80.5458V8.74575H76.4273V10.464C75.9567 9.87978 74.0703 8.44791 71.7509 8.44791C67.8876 8.44791 65.7588 10.5427 65.7588 15.2593ZM70.0251 15.2407C70.0251 12.6748 70.761 11.8042 73.2184 11.8042C75.6757 11.8042 76.4228 12.6776 76.4228 15.2407C76.4228 17.8037 75.6614 18.6772 73.2184 18.6772C70.7754 18.6772 70.0235 17.7938 70.0235 15.2407H70.0251Z" fill="#00274F"/>
<path d="M92.5034 8.76019V13.5325H87.0697V8.76019H82.9512V21.6756H87.0697V16.8374H92.5034V21.6756H96.6234V8.76019H92.5034Z" fill="#00274F"/>
<path d="M114.056 21.6741L107.537 14.8928L113.706 8.76019H108.61L103.083 14.3701V8.76019H99.0381V21.6741H103.083V15.7276L108.761 21.6741H114.056Z" fill="#00274F"/>
</svg>
