<svg width="215" height="28" viewBox="0 0 215 28" fill="none" xmlns="http://www.w3.org/2000/svg">
<path d="M11.114 8.35944L11.0468 8.2391L10.9797 6.19347L14.2702 6.31381L17.6951 6.43414L17.6279 8.4196L23.4367 7.93828L28.339 7.87811L28.4733 11.6685L28.809 15.85L28.339 19.7006L25.0148 20.9039L21.0863 22.5886L17.4936 24.574L17.6951 27.5522L14.5388 27.7327L10.5096 27.492L10.3753 24.6943L7.25262 23.0097L3.79419 21.3853L0.671537 19.5201L0.268621 16.1509L0 12.4507L0.268621 8.2391L5.37232 7.93828L11.114 8.35944ZM20.717 13.7142L18.098 13.9548L17.5608 18.4672L20.8513 16.6322L20.717 13.7142ZM11.0468 19.1291L10.3417 13.8345L7.42051 13.4133L7.82343 17.3542L11.0468 19.1291ZM46.8667 27.492L46.1952 27.1912L42.0988 27.3116L38.5732 27.0107L34.2082 27.6124L30.9848 27.6725L30.8505 23.461L30.3804 20.3925L30.2461 16.5419L30.3804 13.4735L30.1118 9.32208L30.179 6.43414L34.2754 6.25364L38.6404 5.71215L42.0988 5.65199L45.9937 6.43414L46.0609 11.8791L41.8638 11.097L38.3718 11.5181V14.7671L42.0988 14.8272L42.166 18.8282H37.5659L37.7002 21.6861L42.3338 21.5056L46.1952 21.5658L46.8667 27.492ZM49.0425 6.19347L49.0089 6.28372L48.371 6.37398L49.0425 6.19347ZM48.7067 12.8718L48.371 9.38225L49.0089 6.28372L52.736 5.83248L55.8586 6.13331L56.2616 9.56275L55.7243 13.0824L55.59 16.8127L58.1083 13.8345L59.8207 11.7287L60.5594 6.37398L64.085 5.71215L67.3084 6.19347L67.1741 9.44241L67.3084 13.4735L67.0398 16.4216L67.1069 20.6332L67.2412 24.0024L67.6441 27.0107L63.4806 26.9506L59.7536 27.7327L59.8207 24.3634V20.0616L57.7725 24.0024L55.0864 27.3116L48.9754 27.3717L49.0425 24.3033L48.1024 20.7535L48.2367 16.6021L48.7067 12.8718ZM56.4294 4.80967L56.3623 4.93L52.0644 0.447678L57.0003 0.56801L57.8732 2.46322L59.2499 0.146851L64.1521 0.688343L60.3579 4.56901L56.4294 4.80967ZM86.7763 27.492L86.1048 27.1912L82.0084 27.3116L78.4828 27.0107L74.1178 27.6124L70.8944 27.6725L70.7601 23.461L70.29 20.3925L70.1557 16.5419L70.29 13.4735L70.0214 9.32208L70.0886 6.43414L74.1849 6.25364L78.5499 5.71215L82.0084 5.65199L85.9033 6.43414L85.9705 11.8791L81.7733 11.097L78.2813 11.5181V14.7671L82.0084 14.8272L82.0755 18.8282H77.4755L77.6098 21.6861L82.2434 21.5056L86.1048 21.5658L86.7763 27.492ZM88.8178 27.4319L88.0791 27.492L88.6835 23.461L88.4149 19.851L88.5492 16.3013L88.8849 13.1125L88.4149 9.62291L88.5492 5.65199L91.6383 5.71215L95.0631 6.07315L98.8573 6.25364L102.887 6.43414L106.043 6.19347L105.908 9.9839L106.244 13.7442V17.5347L103.088 18.9185L99.1931 20.9641L95.4324 22.7089L95.701 27.3116L91.974 27.0107L88.8178 27.4319ZM95.701 11.7287L95.4996 16.4517L99.2266 14.7671L99.1595 11.6084L95.701 11.7287ZM108.957 27.492L108.151 27.6124L108.89 24.1228L108.756 19.9112L108.286 16.8428L108.151 12.9922L108.286 9.92373L108.017 5.77232L111.677 6.43414L115.37 6.25364L119.366 5.71215L122.455 5.65199L125.981 6.43414L126.048 10.6457V13.8947L122.858 16.4517L126.719 18.5274L126.787 22.9796L126.854 27.853H122.321L118.896 27.2514L115.773 27.0709L111.878 27.1311L108.957 27.492ZM119.097 10.8563L118.963 11.2775L116.176 11.097L115.639 14.4361L118.695 14.5565L119.097 10.8563ZM116.311 21.6861L115.773 22.1072L119.232 21.5056L119.5 17.9257L115.639 18.4071L116.311 21.6861ZM145.65 27.492L144.979 27.1912L140.882 27.3116L137.357 27.0107L132.992 27.6124L129.768 27.6725L129.634 23.461L129.164 20.3925L129.03 16.5419L129.164 13.4735L128.895 9.32208L128.962 6.43414L133.059 6.25364L137.424 5.71215L140.882 5.65199L144.777 6.43414L144.844 11.8791L140.647 11.097L137.155 11.5181V14.7671L140.882 14.8272L140.949 18.8282H136.349L136.484 21.6861L141.117 21.5056L144.979 21.5658L145.65 27.492ZM147.692 27.4319L146.953 27.492L147.557 23.461L147.289 19.851L147.423 16.3013L147.759 13.1125L147.289 9.62291L147.423 5.65199L150.512 5.71215L153.937 6.07315L157.731 6.25364L161.76 6.43414L164.917 6.19347L164.782 9.9839L165.118 13.7442V17.5347L161.962 18.9185L158.067 20.9641L154.306 22.7089L154.575 27.3116L150.848 27.0107L147.692 27.4319ZM154.575 11.7287L154.373 16.4517L158.1 14.7671L158.033 11.6084L154.575 11.7287ZM191.402 27.1311L187.171 27.1912L187.406 24.0024L187.608 20.6332L186.936 16.5419L187.608 13.3532L187.272 9.86357L187.541 6.07315L191.268 5.71215L194.525 5.77232L194.592 10.1042L194.525 13.5337L194.122 17.2037L194.861 20.4527L194.928 24.1228L194.659 27.3717L191.402 27.1311ZM186.936 27.1912H187.171L187.138 27.5522L186.936 27.1912ZM171.323 27.0709L167.562 27.1311L167.294 24.0626L167.428 19.9112L167.16 16.9029L166.958 13.3532L167.16 9.50257L167.092 6.25364L170.853 6.01298L174.513 5.77232L175.184 11.097L178.206 13.1727L181.094 14.737L184.183 15.3687L184.385 19.9714L184.653 23.9122L184.385 27.7327H179.818L176.36 27.4319L171.323 27.0709ZM166.824 27.1311H167.562L167.63 27.7327L166.824 27.1311ZM174.782 16.6322L174.446 16.9932L175.05 22.1975L177.3 21.656L177.636 18.4672L174.782 16.6322ZM207.042 27.1912L206.975 27.853L206.706 20.934L203.416 20.0616L200.193 18.4973L196.432 16.8428L196.23 13.3832L197.104 9.59282L196.432 5.77232L199.991 5.83248L204.121 6.25364L204.39 10.766L204.591 15.459L207.042 16.3314L207.714 13.2027L207.378 9.80341L207.647 6.07315L211.34 5.71215L214.597 5.77232L214.664 10.1042L214.597 13.5337L214.194 17.2037L214.933 20.4527L215 24.1228L214.731 27.3717L211.474 27.1311L207.042 27.1912Z" fill="#0ABAB5"/>
</svg>
