<svg width="24" height="25" viewBox="0 0 24 25" fill="none" xmlns="http://www.w3.org/2000/svg">
<path d="M11.25 19.25C11.25 20.08 10.58 20.75 9.75 20.75C8.92 20.75 8.25 20.08 8.25 19.25C8.25 18.42 8.92 17.75 9.75 17.75C10.58 17.75 11.25 18.42 11.25 19.25ZM16.25 17.75C15.42 17.75 14.75 18.42 14.75 19.25C14.75 20.08 15.42 20.75 16.25 20.75C17.08 20.75 17.75 20.08 17.75 19.25C17.75 18.42 17.08 17.75 16.25 17.75ZM20.73 8.18L18.73 16.18C18.65 16.51 18.35 16.75 18 16.75H8C7.64 16.75 7.33 16.49 7.26 16.13L5.37 5.75H4C3.59 5.75 3.25 5.41 3.25 5C3.25 4.59 3.59 4.25 4 4.25H6C6.36 4.25 6.67 4.51 6.74 4.87L7.17 7.25H20C20.23 7.25 20.45 7.36 20.59 7.54C20.73 7.72 20.78 7.96 20.73 8.18ZM19.04 8.75H7.44L8.62 15.25H17.41L19.04 8.75Z" fill="#808080"/>
</svg>
