<svg width="24" height="25" viewBox="0 0 24 25" fill="none" xmlns="http://www.w3.org/2000/svg">
<path d="M11.9998 20.2501C11.8009 20.2499 11.6103 20.1708 11.4698 20.0301L4.69979 13.2401C3.78366 12.3054 3.27051 11.0488 3.27051 9.74006C3.27051 8.4313 3.78366 7.1747 4.69979 6.24006C5.62808 5.31186 6.88706 4.79042 8.19979 4.79042C9.51253 4.79042 10.7715 5.31186 11.6998 6.24006L11.9998 6.50006L12.2798 6.22006C12.7388 5.75606 13.2855 5.38801 13.8881 5.13736C14.4907 4.8867 15.1371 4.75845 15.7898 4.76006C16.4417 4.75714 17.0878 4.88382 17.6903 5.13274C18.2929 5.38167 18.84 5.74786 19.2998 6.21006C20.2159 7.1447 20.7291 8.4013 20.7291 9.71006C20.7291 11.0188 20.2159 12.2754 19.2998 13.2101L12.5298 20.0001C12.4628 20.0752 12.3813 20.136 12.2902 20.179C12.1992 20.2219 12.1004 20.2461 11.9998 20.2501ZM8.20979 6.25006C7.75562 6.24675 7.30529 6.33342 6.88479 6.50505C6.46429 6.67669 6.08193 6.92989 5.75979 7.25006C5.11067 7.90221 4.74624 8.78491 4.74624 9.70506C4.74624 10.6252 5.11067 11.5079 5.75979 12.1601L11.9998 18.4401L18.2298 12.1801C18.5524 11.8578 18.8084 11.4751 18.983 11.0538C19.1576 10.6326 19.2475 10.1811 19.2475 9.72506C19.2475 9.26905 19.1576 8.81752 18.983 8.39627C18.8084 7.97503 18.5524 7.59233 18.2298 7.27006C17.9102 6.94929 17.5297 6.6956 17.1107 6.52387C16.6917 6.35215 16.2426 6.26586 15.7898 6.27006C15.3356 6.26675 14.8853 6.35342 14.4648 6.52505C14.0443 6.69669 13.6619 6.94989 13.3398 7.27006L12.5298 8.08006C12.3867 8.21581 12.197 8.29149 11.9998 8.29149C11.8026 8.29149 11.6129 8.21581 11.4698 8.08006L10.6598 7.27006C10.3393 6.94628 9.95769 6.68939 9.53711 6.51429C9.11654 6.33919 8.66537 6.24937 8.20979 6.25006Z" fill="#808080"/>
</svg>
