<svg width="24" height="24" viewBox="0 0 24 24" fill="none" xmlns="http://www.w3.org/2000/svg">
<path d="M20.4179 11.7419C20.2502 11.7427 20.087 11.6883 19.9534 11.5871L12.1598 5.74452L4.36627 11.5871C4.20201 11.7103 3.99553 11.7632 3.79227 11.7342C3.589 11.7051 3.4056 11.5965 3.2824 11.4323C3.1592 11.268 3.10631 11.0615 3.13534 10.8583C3.16438 10.655 3.27298 10.4716 3.43724 10.3484L11.6953 4.15484C11.8293 4.05433 11.9923 4 12.1598 4C12.3273 4 12.4903 4.05433 12.6243 4.15484L20.8824 10.3484C21.0323 10.4701 21.1313 10.6435 21.1599 10.8345C21.1886 11.0255 21.1448 11.2203 21.0372 11.3806C20.9714 11.487 20.8806 11.5755 20.7726 11.6385C20.6646 11.7015 20.5428 11.737 20.4179 11.7419Z" fill="white"/>
<path d="M18.3531 20H5.96599C5.76149 19.9974 5.56612 19.9149 5.42151 19.7703C5.27689 19.6257 5.19447 19.4303 5.1918 19.2258V9.4194C5.1918 9.21407 5.27336 9.01715 5.41855 8.87196C5.56374 8.72677 5.76066 8.6452 5.96599 8.6452C6.17132 8.6452 6.36824 8.72677 6.51343 8.87196C6.65862 9.01715 6.74018 9.21407 6.74018 9.4194V18.4517H17.5789V9.4194C17.5789 9.21407 17.6605 9.01715 17.8056 8.87196C17.9508 8.72677 18.1478 8.6452 18.3531 8.6452C18.5584 8.6452 18.7553 8.72677 18.9005 8.87196C19.0457 9.01715 19.1273 9.21407 19.1273 9.4194V19.2258C19.1246 19.4303 19.0422 19.6257 18.8976 19.7703C18.753 19.9149 18.5576 19.9974 18.3531 20Z" fill="white"/>
</svg>
